<svg width="47" height="47" viewBox="0 0 47 47" fill="none" xmlns="http://www.w3.org/2000/svg">
<path d="M32.9324 9.42944C29.3017 9.43041 25.9923 10.8066 23.4981 13.0669C21.0019 10.8095 17.6944 9.43236 14.0676 9.43236C14.0375 9.43236 14.0064 9.43236 13.9773 9.43236C6.25399 9.48282 0 15.7659 0 23.4999C0 31.265 6.30251 37.5666 14.0666 37.5666C17.6934 37.5666 21.0009 36.1913 23.4961 33.932C22.975 33.4613 22.5033 32.9401 22.0578 32.3947H24.9626C24.5249 32.9314 24.0474 33.4341 23.534 33.9019H23.532C23.5204 33.9145 23.5078 33.9223 23.4961 33.933C25.9932 36.1942 29.3046 37.5724 32.9373 37.5714C40.7062 37.5685 47.0019 31.2679 47 23.4999C47 23.497 47 23.4951 47 23.4931C47.001 15.7252 40.7014 9.4275 32.9324 9.42944ZM22.2189 14.5198H24.8927C25.2867 14.9973 25.6526 15.5 25.9845 16.026H21.2144C21.5221 15.5233 21.8598 15.006 22.2189 14.5198ZM20.3837 17.5031H26.7959C27.0239 17.9903 27.2258 18.494 27.4024 19.0103H19.6238C19.7014 18.8648 19.9732 18.2786 20.3837 17.5031ZM5.74252 27.0831L6.59561 21.7045L4.67108 27.0831H3.63942L3.50549 21.7045L2.59418 27.0831H1.14909L2.3467 19.9498H4.5323L4.60897 24.3268L6.08512 19.9498H8.45608L7.27496 27.0831H5.74252ZM10.8523 27.0714L10.9018 26.5017C10.8785 26.5046 10.4223 27.1898 9.36545 27.1898C8.81226 27.1898 7.91939 26.888 7.91939 25.5759C7.91939 23.9076 9.28004 23.3544 10.5757 23.3544C10.7795 23.3544 11.2191 23.3912 11.2191 23.3912C11.2191 23.3912 11.2686 23.2893 11.2686 23.0137C11.2686 22.5605 10.861 22.4984 10.303 22.4984C9.31984 22.4984 8.67056 22.7614 8.67056 22.7614L8.88796 21.4706C8.88796 21.4706 9.67601 21.1406 10.7018 21.1406C11.2327 21.1406 12.7593 21.1969 12.7593 22.9467L12.1712 27.0714H10.8523ZM16.4259 25.2546C16.4259 27.2451 14.4975 27.1597 14.1608 27.1597C12.9039 27.1597 12.5157 26.986 12.4798 26.9763L12.6798 25.6661C12.6817 25.6545 13.3106 25.8942 14.0103 25.8942C14.4141 25.8942 14.9381 25.8544 14.9381 25.3721C14.9381 24.65 13.0631 24.8227 13.0631 23.1079C13.0631 21.5948 14.187 21.1523 15.2953 21.1523C16.1513 21.1523 16.6773 21.2697 16.6773 21.2697L16.488 22.5915C16.488 22.5915 15.6757 22.5246 15.4651 22.5246C14.9323 22.5246 14.6421 22.641 14.6421 23.0137C14.6412 23.7629 16.4259 23.3961 16.4259 25.2546ZM18.7416 25.7768C18.8745 25.7768 19.025 25.7311 19.1278 25.7311L18.9405 27.0035C18.7901 27.0452 18.364 27.1966 17.8176 27.2005C17.1198 27.2063 16.6239 26.8162 16.6239 25.9311C16.6239 25.3371 17.4751 20.4428 17.5081 20.4108H19.0056L18.8532 21.2862H19.6005L19.4093 22.6964H18.6164L18.1952 25.2944C18.1631 25.5011 18.2204 25.7768 18.7416 25.7768ZM22.0355 21.1212C23.6795 21.1212 24.1716 22.3246 24.1716 23.3117C24.1716 23.7067 23.9736 24.6772 23.9736 24.6772H20.9301C20.9301 24.6772 20.6486 25.8758 22.2568 25.8758C23.0109 25.8758 23.8474 25.507 23.8474 25.507L23.5835 26.9501C23.5835 26.9501 23.1001 27.1966 22.0015 27.1966C20.8107 27.1966 19.4141 26.6929 19.4141 24.5772C19.4151 22.7439 20.5293 21.1212 22.0355 21.1212ZM26.002 30.9457H21.0116C20.7078 30.4605 20.4244 29.9626 20.1808 29.4395H26.8221C26.5775 29.9597 26.3038 30.4624 26.002 30.9457ZM25.6672 27.0937H24.1299L25.0645 21.2881H26.4591L26.3252 22.1296C26.3252 22.1296 26.8221 21.2144 27.4927 21.2144C27.6878 21.2144 27.7819 21.2338 27.7819 21.2338C27.5829 21.6395 27.4073 22.0112 27.2248 22.971C26.1844 22.6022 26.1049 24.6141 25.6672 27.0937ZM31.5242 27.0035C31.5242 27.0035 30.7187 27.2092 30.214 27.2092C28.4263 27.2092 27.5189 25.9757 27.5189 24.1075C27.5189 21.2901 29.2008 19.7897 30.9293 19.7897C31.7105 19.7897 32.616 20.1565 32.616 20.1565L32.3715 21.7433C32.3715 21.7433 31.7591 21.3153 30.9972 21.3153C29.9782 21.3153 29.064 22.2878 29.064 24.0551C29.064 24.9256 29.49 25.737 30.5537 25.737C31.0593 25.737 31.7921 25.3691 31.7921 25.3691L31.5242 27.0035ZM35.1297 27.0743L35.1801 26.5008C35.1559 26.5037 34.6997 27.1889 33.6438 27.1889C33.0906 27.1889 32.1977 26.887 32.1977 25.5749C32.1977 23.9066 33.5584 23.3534 34.8531 23.3534C35.0569 23.3534 35.4975 23.3903 35.4975 23.3903C35.4975 23.3903 35.5479 23.2893 35.5479 23.0137C35.5479 22.5605 35.1403 22.4984 34.5813 22.4984C33.5982 22.4984 32.9499 22.7614 32.9499 22.7614L33.1673 21.4706C33.1673 21.4706 33.9553 21.1406 34.9821 21.1406C35.512 21.1406 37.0396 21.1969 37.0387 22.9467L36.4505 27.0714C36.4496 27.0743 35.1297 27.0743 35.1297 27.0743ZM38.2421 27.0937H36.7048L37.6394 21.2881H39.035L38.9011 22.1296C38.9011 22.1296 39.3989 21.2144 40.0696 21.2144C40.2646 21.2144 40.3578 21.2338 40.3578 21.2338C40.1598 21.6395 39.9822 22.0112 39.8007 22.971C38.7594 22.6022 38.6798 24.6141 38.2421 27.0937ZM42.8316 27.0782L42.8967 26.5435C42.8967 26.5435 42.3998 27.1704 41.5011 27.1704C40.2559 27.1704 39.6455 25.968 39.6455 24.7393C39.6455 22.839 40.7887 21.1824 42.161 21.1824C43.0442 21.1843 43.6081 21.9636 43.6081 21.9636L43.9322 19.9595L45.4336 19.9566L44.2884 27.0782H42.8316ZM45.7937 26.8773C45.7539 26.9491 45.6976 27.0045 45.6258 27.0472C45.5549 27.087 45.4792 27.1073 45.3996 27.1073C45.322 27.1073 45.2473 27.087 45.1754 27.0472C45.1036 27.0045 45.0473 26.9491 45.0075 26.8773C44.9668 26.8045 44.9474 26.7308 44.9474 26.6522C44.9474 26.5726 44.9677 26.4969 45.0075 26.4251C45.0473 26.3532 45.1065 26.295 45.1774 26.2562C45.2511 26.2164 45.3239 26.196 45.3996 26.196C45.4773 26.196 45.551 26.2164 45.6228 26.2562C45.6966 26.296 45.7529 26.3513 45.7937 26.4251C45.8354 26.4979 45.8538 26.5736 45.8538 26.6522C45.8538 26.7308 45.8344 26.8055 45.7937 26.8773Z" fill="#99A2A9"/>
<path d="M45.6735 31.17C45.6638 31.1632 45.6551 31.1525 45.6396 31.1467C45.624 31.1408 45.5998 31.1379 45.5619 31.1379H45.4707V31.2835H45.5678C45.6134 31.2835 45.6435 31.2796 45.6609 31.2631C45.6774 31.2496 45.6852 31.2331 45.6852 31.2098C45.6852 31.1942 45.6813 31.1836 45.6735 31.17Z" fill="#99A2A9"/>
<path d="M45.9869 31.0826C45.9452 31.0069 45.8879 30.9535 45.8151 30.9137C45.7423 30.8739 45.6686 30.8535 45.5929 30.8535C45.5152 30.8535 45.4415 30.8739 45.3697 30.9137C45.2978 30.9535 45.2386 31.0088 45.1988 31.0826C45.1571 31.1544 45.1387 31.2301 45.1387 31.3077C45.1387 31.3854 45.1591 31.462 45.1988 31.5329C45.2406 31.6047 45.2969 31.6629 45.3677 31.7027C45.4395 31.7425 45.5152 31.7629 45.5948 31.7629C45.6725 31.7629 45.7482 31.7425 45.819 31.7027C45.8899 31.6629 45.9471 31.6047 45.9869 31.5329C46.0277 31.462 46.0471 31.3863 46.0471 31.3077C46.0471 31.2291 46.0267 31.1534 45.9869 31.0826ZM45.7074 31.56L45.6647 31.4834C45.6307 31.4232 45.6026 31.3834 45.5812 31.3679C45.5676 31.3582 45.5463 31.3504 45.5191 31.3504H45.4735V31.5591H45.3939V31.069H45.5628C45.621 31.069 45.6628 31.0738 45.686 31.0835C45.7123 31.0932 45.7346 31.1068 45.7482 31.1311C45.7637 31.1534 45.7705 31.1777 45.7705 31.2029C45.7705 31.2388 45.7569 31.2689 45.7326 31.297C45.7074 31.3223 45.6725 31.3388 45.6307 31.3417C45.6482 31.3475 45.6618 31.3572 45.6725 31.3679C45.6928 31.3873 45.7161 31.4193 45.7452 31.464L45.8054 31.56H45.7074Z" fill="#99A2A9"/>
<path d="M10.6969 24.4675C9.5992 24.4675 9.37695 24.9605 9.37695 25.3711C9.37695 25.5826 9.49827 25.9359 9.96314 25.9359C10.8647 25.9359 11.0521 24.7538 11.0229 24.5025C10.9802 24.4937 10.9531 24.4685 10.6969 24.4675Z" fill="#99A2A9"/>
<path d="M22.0413 22.4614C21.2251 22.4614 21.0679 23.3902 21.0679 23.4882H22.7304C22.7304 23.4135 22.8866 22.4614 22.0413 22.4614Z" fill="#99A2A9"/>
<path d="M42.4204 22.6235C41.7614 22.6235 41.2402 23.3883 41.2412 24.55C41.2412 25.2585 41.4935 25.7127 42.0332 25.7127C42.8445 25.7127 43.2356 24.6538 43.2356 23.8648C43.2356 22.9943 42.959 22.6235 42.4204 22.6235Z" fill="#99A2A9"/>
<path d="M45.7256 26.4639C45.6916 26.4037 45.6441 26.3571 45.5839 26.3232C45.5237 26.2892 45.4626 26.2727 45.3985 26.2727C45.3364 26.2727 45.2733 26.2902 45.2132 26.3232C45.153 26.3542 45.1054 26.4028 45.0715 26.4639C45.0375 26.525 45.02 26.5901 45.02 26.6531C45.02 26.7182 45.0375 26.7822 45.0695 26.8414C45.1054 26.9016 45.151 26.9472 45.2112 26.9831C45.2714 27.0161 45.3335 27.0355 45.3985 27.0355C45.4635 27.0355 45.5276 27.0161 45.5858 26.9831C45.646 26.9492 45.6926 26.9026 45.7275 26.8414C45.7615 26.7813 45.777 26.7182 45.777 26.6531C45.777 26.5891 45.7596 26.525 45.7256 26.4639ZM45.515 26.9026L45.4713 26.8269C45.4373 26.7657 45.4102 26.7269 45.3898 26.7123C45.3733 26.6997 45.3539 26.6939 45.3257 26.6939H45.2811V26.9016H45.1996V26.4125H45.3694C45.4267 26.4125 45.4694 26.4173 45.4936 26.428C45.5179 26.4367 45.5392 26.4532 45.5557 26.4746C45.5722 26.4959 45.5781 26.5202 45.5781 26.5464C45.5781 26.5823 45.5645 26.6124 45.5392 26.6396C45.514 26.6677 45.4791 26.6793 45.4383 26.6842C45.4577 26.692 45.4703 26.7007 45.48 26.7094C45.5004 26.7298 45.5237 26.7589 45.5519 26.8055L45.612 26.9026H45.515Z" fill="#99A2A9"/>
<path d="M34.9761 24.4675C33.8785 24.4675 33.6562 24.9605 33.6562 25.3711C33.6562 25.5826 33.7766 25.9359 34.2424 25.9359C35.144 25.9359 35.3304 24.7538 35.3022 24.5025C35.2586 24.4937 35.2314 24.4685 34.9761 24.4675Z" fill="#99A2A9"/>
<path d="M45.4821 26.5125C45.4744 26.5028 45.4637 26.495 45.4492 26.4882C45.4327 26.4834 45.4084 26.4785 45.3696 26.4785V26.4795H45.2812V26.627H45.3773C45.4229 26.627 45.453 26.6212 45.4715 26.6066C45.486 26.5921 45.4948 26.5736 45.4948 26.5523C45.4948 26.5358 45.4909 26.5261 45.4821 26.5125Z" fill="#99A2A9"/>
</svg>
