<svg width="50" height="50" viewBox="0 0 50 50" fill="none" xmlns="http://www.w3.org/2000/svg">
<path d="M20.0201 17.5598L17.479 32.4718H21.5431L24.0862 17.5598H20.0201Z" fill="#99A2A9"/>
<path d="M14.0718 17.5764L10.0914 27.7459L9.667 26.2104C8.88199 24.3603 6.65345 21.7031 4.03711 20.0286L7.67678 32.4643L11.9771 32.457L18.3773 17.5732L14.0718 17.5764Z" fill="#99A2A9"/>
<path d="M8.12393 18.6436C7.8877 17.7353 7.20304 17.4645 6.35322 17.4321H0.0522641L0 17.729C4.90342 18.9185 8.14797 21.7847 9.49429 25.231L8.12393 18.6436Z" fill="#99A2A9"/>
<path d="M32.3232 20.4184C33.6528 20.3975 34.6166 20.6881 35.365 20.9891L35.7319 21.1616L36.2817 17.9296C35.4769 17.6275 34.2152 17.3035 32.641 17.3035C28.625 17.3035 25.7944 19.3261 25.7725 22.2247C25.7463 24.3664 27.7888 25.5622 29.3317 26.2762C30.9153 27.0079 31.4463 27.473 31.4389 28.1263C31.4264 29.1246 30.1762 29.5824 29.0087 29.5824C27.3812 29.5824 26.5167 29.3577 25.1819 28.8016L24.6582 28.5632L24.0864 31.9008C25.0376 32.3179 26.7927 32.6764 28.6146 32.6952C32.8867 32.6952 35.6629 30.6967 35.6922 27.5995C35.71 25.9051 34.626 24.6121 32.2773 23.5511C30.8557 22.8591 29.986 22.3992 29.9944 21.701C29.9944 21.0811 30.7323 20.4184 32.3232 20.4184Z" fill="#99A2A9"/>
<path d="M46.7114 17.5764H43.5714C42.5961 17.5764 41.8707 17.8419 41.4421 18.814L35.4077 32.48H39.6756C39.6756 32.48 40.3718 30.6424 40.5296 30.24C40.9968 30.24 45.1435 30.2463 45.734 30.2463C45.8553 30.7668 46.2295 32.48 46.2295 32.48H49.9998L46.7114 17.5764ZM41.6993 27.1878C42.0338 26.3317 43.3184 23.0202 43.3184 23.0202C43.2965 23.061 43.6498 22.1579 43.8599 21.5966L44.1337 22.8823C44.1337 22.8823 44.9125 26.4425 45.0755 27.1878H41.6993Z" fill="#99A2A9"/>
</svg>
