<svg width="97" height="27" viewBox="0 0 97 27" fill="none" xmlns="http://www.w3.org/2000/svg">
<path d="M91.5276 13.3681L89.251 15.425L91.3066 17.7002L93.5832 15.6433L91.5276 13.3681Z" fill="#99A2A9"/>
<path d="M86.9906 15.2187L83.9546 17.9517L86.6888 20.9891L89.7248 18.2562L86.9906 15.2187Z" fill="#99A2A9"/>
<path d="M95.6337 12.6442L94.1172 14.011L95.484 15.5275L97.0005 14.1606L95.6337 12.6442Z" fill="#99A2A9"/>
<path d="M87.48 3.98432L85.2012 6.03564L87.2525 8.31448L89.5313 6.26316L87.48 3.98432Z" fill="#99A2A9"/>
<path d="M93.6921 8.11261L92.1787 9.47998L93.5474 10.9948L95.0608 9.62746L93.6921 8.11261Z" fill="#99A2A9"/>
<path d="M10.1748 8.24048L8.68738 15.9499H8.58433L6.55831 8.24048H5.26143L3.36762 15.9499H3.26457L1.63326 8.24048H0L2.36045 18.5728H3.93537L5.85834 11.299H5.96139L7.94269 18.5728H9.51762L11.88 8.24048H10.1748Z" fill="#99A2A9"/>
<path d="M84.8358 9.95661L81.7969 12.6921L84.5311 15.7296L87.57 12.9941L84.8358 9.95661Z" fill="#99A2A9"/>
<path d="M82.6659 4.78067L79.6284 7.51489L82.3626 10.5524L85.4001 7.81815L82.6659 4.78067Z" fill="#99A2A9"/>
<path d="M89.5735 8.56712L87.3003 10.6189L89.356 12.8964L91.6292 10.8446L89.5735 8.56712Z" fill="#99A2A9"/>
<path d="M91.743 3.60801L90.2266 4.97485L91.5934 6.49134L93.1099 5.1245L91.743 3.60801Z" fill="#99A2A9"/>
<path d="M66.7983 11.3574L65.1436 16.7258H65.0561L63.1915 11.3594H61.5894L64.3853 18.6488C64.0353 19.7279 63.4248 20.5134 62.4332 20.5134V21.7053C64.1073 21.7053 64.9959 20.6573 65.725 18.6449L68.3596 11.3574H66.7983Z" fill="#99A2A9"/>
<path d="M18.5529 14.6724C18.5548 12.2906 17.4329 11.1143 15.6111 11.1143C13.4256 11.1143 12.3037 12.7145 12.3037 14.931C12.3037 17.2351 13.3109 18.7497 15.7569 18.7497C16.8049 18.7497 17.6799 18.4581 18.3351 18.0751V16.9726C17.534 17.449 16.8049 17.729 16.0194 17.729C14.5203 17.729 13.8048 16.959 13.8048 15.2071H18.5529V14.6724ZM13.8339 14.2291C13.9934 12.7747 14.6797 12.0884 15.5683 12.0884C16.3558 12.0884 17.0985 12.697 17.1704 14.2291H13.8339Z" fill="#99A2A9"/>
<path d="M93.5338 17.9719L91.2559 20.0244L93.3097 22.3038L95.5876 20.2512L93.5338 17.9719Z" fill="#99A2A9"/>
<path d="M61.1286 14.6724C61.1324 12.2906 60.0086 11.1143 58.1887 11.1143C56.0013 11.1143 54.8813 12.7145 54.8813 14.931C54.8813 17.2351 55.8866 18.7497 58.3326 18.7497C59.3806 18.7497 60.2517 18.4581 60.9088 18.0751V16.9726C60.1097 17.449 59.3806 17.729 58.5951 17.729C57.096 17.729 56.3785 16.959 56.3785 15.2071H61.1286V14.6724ZM56.4077 14.2291C56.571 12.7747 57.2574 12.0884 58.1459 12.0884C58.9295 12.0884 59.6761 12.697 59.7481 14.2291H56.4077Z" fill="#99A2A9"/>
<path d="M89.5376 20.5541L86.5686 23.2918L81.5561 17.7134L82.9502 16.4866L79.4406 12.557L80.8425 11.3282L77.2804 7.40253L82.8393 2.39775L84.6048 4.33045L87.5855 1.67057L89.3471 3.49632L90.5215 2.44442C90.259 2.29276 89.9965 2.15277 89.7301 2.02638C88.0366 1.19809 86.135 0.731445 84.1323 0.731445C77.0996 0.731445 71.3618 6.46729 71.3618 13.502C71.3618 20.5347 77.0996 26.2705 84.1323 26.2705C86.4169 26.2705 88.5693 25.6659 90.4262 24.6062C91.0387 24.2601 91.5967 23.8848 92.1061 23.4901L89.5376 20.5541Z" fill="#99A2A9"/>
<path d="M23.3632 11.1143C22.5757 11.1143 21.833 11.4196 21.3936 11.6529V7.49976L19.8789 7.86335V18.0343C20.7539 18.499 21.9477 18.7479 22.7216 18.7479C24.8351 18.7479 26.1456 17.4199 26.1456 14.6939C26.1456 12.3665 25.1695 11.1143 23.3632 11.1143ZM22.7216 17.7271C22.356 17.7271 21.8485 17.6998 21.3819 17.4957V12.7301C21.9652 12.4093 22.3891 12.2498 22.9685 12.2498C23.9446 12.2498 24.6173 12.8487 24.6173 14.6958C24.6173 17.0563 23.8007 17.7271 22.7216 17.7271Z" fill="#99A2A9"/>
<path d="M51.1229 11.1104C49.4469 11.1104 48.0625 11.7948 47.4072 12.1875V18.5689H48.9199V12.8C49.371 12.5375 50.1157 12.275 50.6971 12.275C51.4457 12.275 52.0115 12.4792 52.0115 13.6302V18.5708H53.5261V13.2978C53.5261 11.7987 52.8689 11.1142 51.1229 11.1104Z" fill="#99A2A9"/>
<path d="M35.9688 8.24048L32.8539 16.3854H32.7801L29.5155 8.24048H27.7539V18.5728H29.0644V11.2562H29.1947L32.1676 18.5728H33.0989L36.0719 11.0792H36.2021V18.5728H37.7751V8.24048H35.9688Z" fill="#99A2A9"/>
<path d="M42.6999 11.1143C40.7769 11.1143 39.377 12.382 39.377 14.931C39.377 17.4218 40.7049 18.7497 42.6999 18.7497C44.6967 18.7497 46.0228 17.4218 46.0228 14.931C46.0228 12.38 44.6228 11.1143 42.6999 11.1143ZM42.6999 17.727C41.6655 17.727 40.9072 16.9298 40.9072 14.931C40.9072 12.9633 41.7393 12.1331 42.6999 12.1331C43.6915 12.1331 44.4925 12.9633 44.4925 14.931C44.4925 16.9279 43.7342 17.727 42.6999 17.727Z" fill="#99A2A9"/>
</svg>
