<svg width="24" height="24" viewBox="0 0 24 24" fill="none" xmlns="http://www.w3.org/2000/svg">
<path d="M10.8984 6.79688H12.2812V8.25C12.2812 8.48264 12.4939 8.67188 12.7266 8.67188H13.8984C14.1311 8.67188 14.2969 8.48264 14.2969 8.25V6.79688H15.6328C15.8655 6.79688 16.0312 6.60764 16.0312 6.375V5.25C16.0312 5.01736 15.8655 4.82812 15.6328 4.82812H14.2969V3.51562C14.2969 3.28298 14.1311 3.09375 13.8984 3.09375H12.7266C12.4939 3.09375 12.2812 3.28298 12.2812 3.51562V4.82812H10.8984C10.6658 4.82812 10.4531 5.01736 10.4531 5.25V6.375C10.4531 6.60764 10.6658 6.79688 10.8984 6.79688ZM11.1094 5.48438H12.5391C12.7717 5.48438 12.9375 5.29514 12.9375 5.0625V3.75H13.6406V5.0625C13.6406 5.29514 13.8533 5.48438 14.0859 5.48438H15.375V6.14062H14.0859C13.8533 6.14062 13.6406 6.32986 13.6406 6.5625V8.01562H12.9375V6.5625C12.9375 6.32986 12.7717 6.14062 12.5391 6.14062H11.1094V5.48438Z" fill="#BE2E36"/>
<path d="M18.2109 3.04688H18.2104C18.1975 2.47103 17.9599 1.92308 17.5483 1.52015C17.1367 1.11722 16.5838 0.891276 16.0078 0.890625H7.17534C7.0936 0.890622 7.0148 0.921128 6.95438 0.976172L3.68138 3.9465C3.64605 3.97668 3.61728 4.01377 3.59683 4.05549C3.57639 4.09721 3.5647 4.14267 3.5625 4.18908V18.75C3.5625 19.9648 4.57425 20.9531 5.78906 20.9531H5.83645C5.84935 21.529 6.087 22.0769 6.4986 22.4799C6.91019 22.8828 7.46307 23.1087 8.03906 23.1094H18.2109C18.4989 23.1086 18.7839 23.0509 19.0496 22.9396C19.3152 22.8283 19.5562 22.6657 19.7588 22.4609C19.9613 22.2562 20.1214 22.0134 20.2298 21.7466C20.3383 21.4798 20.3929 21.1942 20.3906 20.9062V5.25C20.3929 4.96201 20.3383 4.67641 20.2298 4.4096C20.1214 4.1428 19.9613 3.90006 19.7588 3.69533C19.5562 3.4906 19.3152 3.32791 19.0496 3.21663C18.7839 3.10535 18.4989 3.04766 18.2109 3.04688ZM6.84375 1.94325V3.375C6.84375 3.711 6.59381 3.98438 6.25781 3.98438H4.62609L6.84375 1.94325ZM5.78906 20.2969C4.93594 20.2969 4.21875 19.6031 4.21875 18.75V4.64062H6.25781C6.95569 4.64062 7.5 4.07288 7.5 3.375V1.54688H16.0078C16.8609 1.54688 17.5312 2.24062 17.5312 3.09375V18.75C17.5312 19.6031 16.8609 20.2969 16.0078 20.2969H5.78906ZM19.7344 20.9062C19.7344 21.7594 19.0641 22.4531 18.2109 22.4531H8.03906C7.63706 22.4527 7.251 22.2959 6.96246 22.016C6.67393 21.7361 6.50554 21.3549 6.49289 20.9531H16.0078C16.2958 20.9523 16.5808 20.8947 16.8464 20.7834C17.1121 20.6721 17.3531 20.5094 17.5556 20.3047C17.7582 20.0999 17.9183 19.8572 18.0267 19.5904C18.1352 19.3236 18.1898 19.038 18.1875 18.75V3.70312C19.0781 3.70312 19.7344 4.39687 19.7344 5.25V20.9062Z" fill="#BE2E36"/>
<path d="M6.07031 9.375H9.35156C9.43859 9.375 9.52205 9.34043 9.58358 9.27889C9.64512 9.21736 9.67969 9.1339 9.67969 9.04688C9.67969 8.95985 9.64512 8.87639 9.58358 8.81486C9.52205 8.75332 9.43859 8.71875 9.35156 8.71875H6.07031C5.98329 8.71875 5.89983 8.75332 5.83829 8.81486C5.77676 8.87639 5.74219 8.95985 5.74219 9.04688C5.74219 9.1339 5.77676 9.21736 5.83829 9.27889C5.89983 9.34043 5.98329 9.375 6.07031 9.375Z" fill="#BE2E36"/>
<path d="M6.07031 11.6719H11.0391C11.1261 11.6719 11.2095 11.6373 11.2711 11.5758C11.3326 11.5142 11.3672 11.4308 11.3672 11.3438C11.3672 11.2567 11.3326 11.1733 11.2711 11.1117C11.2095 11.0502 11.1261 11.0156 11.0391 11.0156H6.07031C5.98329 11.0156 5.89983 11.0502 5.83829 11.1117C5.77676 11.1733 5.74219 11.2567 5.74219 11.3438C5.74219 11.4308 5.77676 11.5142 5.83829 11.5758C5.89983 11.6373 5.98329 11.6719 6.07031 11.6719Z" fill="#BE2E36"/>
<path d="M6.07031 13.9688H11.0391C11.1261 13.9688 11.2095 13.9342 11.2711 13.8726C11.3326 13.8111 11.3672 13.7276 11.3672 13.6406C11.3672 13.5536 11.3326 13.4701 11.2711 13.4086C11.2095 13.3471 11.1261 13.3125 11.0391 13.3125H6.07031C5.98329 13.3125 5.89983 13.3471 5.83829 13.4086C5.77676 13.4701 5.74219 13.5536 5.74219 13.6406C5.74219 13.7276 5.77676 13.8111 5.83829 13.8726C5.89983 13.9342 5.98329 13.9688 6.07031 13.9688Z" fill="#BE2E36"/>
<path d="M6.07031 16.2656H13.8984C13.9855 16.2656 14.0689 16.2311 14.1305 16.1695C14.192 16.108 14.2266 16.0245 14.2266 15.9375C14.2266 15.8505 14.192 15.767 14.1305 15.7055C14.0689 15.6439 13.9855 15.6094 13.8984 15.6094H6.07031C5.98329 15.6094 5.89983 15.6439 5.83829 15.7055C5.77676 15.767 5.74219 15.8505 5.74219 15.9375C5.74219 16.0245 5.77676 16.108 5.83829 16.1695C5.89983 16.2311 5.98329 16.2656 6.07031 16.2656Z" fill="#BE2E36"/>
<path d="M16.2422 18.2344C16.2422 18.1474 16.2076 18.0639 16.1461 18.0024C16.0845 17.9408 16.0011 17.9062 15.9141 17.9062H6.07031C5.98329 17.9063 5.89983 17.9408 5.83829 18.0024C5.77676 18.0639 5.74219 18.1474 5.74219 18.2344C5.74219 18.3214 5.77676 18.4049 5.83829 18.4664C5.89983 18.5279 5.98329 18.5625 6.07031 18.5625H15.9141C16.0011 18.5625 16.0845 18.5279 16.1461 18.4664C16.2076 18.4049 16.2422 18.3214 16.2422 18.2344Z" fill="#BE2E36"/>
</svg>
