<svg width="102" height="102" viewBox="0 0 102 102" fill="none" xmlns="http://www.w3.org/2000/svg">
<g clip-path="url(#clip0_22_149)">
<path d="M88.4659 61.9757C90.7045 55.3896 91.8398 48.5191 91.8398 41.5285V17.9566C91.8398 16.9892 91.1448 16.1614 90.1919 15.9943L90.062 15.9715C75.3326 13.3889 61.4012 8.11436 48.655 0.294026C48.0145 -0.099033 47.2073 -0.0980369 46.5676 0.296217C33.9104 8.09962 20.0663 13.3584 5.42034 15.9265L5.03466 15.9941C4.08179 16.1612 3.38672 16.989 3.38672 17.9566V41.5285C3.38672 54.9814 7.54999 67.8569 15.4265 78.7627C23.303 89.6687 34.2164 97.6692 46.9869 101.899C47.1903 101.966 47.4019 102 47.6133 102C47.8252 102 48.0372 101.966 48.2412 101.898L48.2665 101.89C52.9545 100.335 57.4425 98.2399 61.6309 95.6577C65.5549 99.5747 70.9679 102 76.9371 102C88.8894 102 98.6133 92.2759 98.6133 80.3236C98.6133 72.6053 94.5574 65.8171 88.4659 61.9757ZM47.6131 97.9054C23.5138 89.6307 7.37109 67.0592 7.37109 41.5285V19.623C21.6499 16.9654 35.1767 11.8232 47.6159 4.32382C60.0654 11.7945 73.5908 16.9356 87.8555 19.62V41.5285C87.8555 47.89 86.8504 54.1443 84.8726 60.1515C83.1627 59.4765 81.3468 59.0146 79.458 58.7948C81.3289 53.241 82.2771 47.4455 82.2771 41.5285V25.7444C82.2771 24.8222 81.6442 24.0206 80.7473 23.8066C69.5174 21.1271 58.698 16.9278 48.5899 11.325C47.988 10.9913 47.2565 10.9921 46.6554 11.3266C36.5485 16.9507 25.7237 21.154 14.4816 23.8194C13.5833 24.0323 12.949 24.8346 12.949 25.7578V41.5285C12.949 52.4095 16.166 62.9029 22.2523 71.8747C28.3162 80.8137 36.8298 87.6628 46.8726 91.6814C47.1101 91.7765 47.3615 91.8241 47.6127 91.8241C47.8639 91.8241 48.1153 91.7765 48.353 91.6814C51.1837 90.5485 53.9176 89.1731 56.5128 87.5841C57.1465 89.3613 58.0055 91.0322 59.056 92.5622C55.4499 94.7383 51.612 96.5316 47.6131 97.9054ZM55.2607 80.3236C55.2607 81.4089 55.342 82.4757 55.4968 83.5189C53.0039 85.1329 50.3599 86.5287 47.6127 87.6793C28.9485 79.8702 16.9336 61.8427 16.9336 41.5285V27.323C27.6265 24.6499 37.939 20.6243 47.626 15.3408C57.3103 20.6028 67.6152 24.6236 78.293 27.3073V41.5285C78.293 47.4342 77.275 53.2081 75.2664 58.7111C64.0915 59.567 55.2607 68.9335 55.2607 80.3236ZM76.9371 98.0156C67.1817 98.0156 59.2451 90.0791 59.2451 80.3236C59.2451 70.568 67.1817 62.6316 76.9371 62.6316C86.6924 62.6316 94.6289 70.5682 94.6289 80.3236C94.6289 90.0789 86.6922 98.0156 76.9371 98.0156Z" fill="#3C4852"/>
<path d="M74.8627 79.5562L70.7087 75.4022L65.79 80.3208L74.8627 89.3934L88.0836 76.1724L83.1651 71.2539L74.8627 79.5562Z" fill="#FFCC80"/>
</g>
<defs>
<clipPath id="clip0_22_149">
<rect width="102" height="102" fill="white"/>
</clipPath>
</defs>
</svg>
