<svg width="97" height="96" viewBox="0 0 97 96" fill="none" xmlns="http://www.w3.org/2000/svg">
<path d="M40.6516 67.1127C40.1942 66.9561 39.7271 66.7926 39.2607 66.623V59.1119C40.3593 59.4178 40.9931 59.9423 41.0399 59.9816C41.8186 60.6772 43.0263 60.6245 43.7443 59.87C44.462 59.1155 44.4127 57.9402 43.634 57.2447C43.5337 57.155 41.9139 55.7443 39.2609 55.3093V53.8579C39.2609 52.832 38.4024 52 37.3433 52C36.2843 52 35.4258 52.832 35.4258 53.8579V55.4457C35.215 55.4938 35.0022 55.5466 34.7851 55.6099C32.2518 56.3492 30.3593 58.4477 29.8462 61.0865C29.3769 63.4985 30.1789 65.8278 31.9386 67.1651C32.8305 67.8429 33.9316 68.4638 35.4258 69.1156V78.7892C34.1881 78.6757 33.3513 78.3472 31.9676 77.4701C31.0817 76.9088 29.8929 77.149 29.3131 78.0078C28.7334 78.8663 28.9817 80.0179 29.868 80.5797C32.0378 81.9551 33.5396 82.3927 35.4258 82.5157V84.1421C35.4258 85.168 36.2843 86 37.3433 86C38.4024 86 39.2609 85.168 39.2609 84.1421V82.3496C42.9751 81.544 45.36 78.5176 45.878 75.5332C46.5374 71.7313 44.486 68.4261 40.6516 67.1127ZM34.3053 64.2417C33.6859 63.7709 33.4148 62.8027 33.6146 61.7749C33.7851 60.8983 34.3488 59.8579 35.4254 59.3462V64.9579C35.0095 64.7266 34.6298 64.4882 34.3053 64.2417ZM42.0955 74.9171C41.8533 76.3122 40.8909 77.7902 39.2606 78.4659V70.577C39.2987 70.5902 39.3348 70.6028 39.3733 70.616C42.4112 71.6566 42.225 74.1713 42.0955 74.9171Z" fill="#3C4852"/>
<path d="M97 41.0008C97 26.5546 85.1262 14.8017 70.5315 14.8017C62.6336 14.8017 55.5338 18.2445 50.68 23.6923C51.6584 22.2727 53.2259 20.0181 55.7409 16.4307C57.3181 14.181 57.2899 11.2933 55.6685 9.07433C54.0472 6.85497 51.2857 5.92316 48.633 6.70214C47.5916 7.00705 46.4838 6.65938 45.8109 5.81571L43.416 2.81269C41.9904 1.0252 39.8532 0 37.5525 0C35.2517 0 33.1145 1.0252 31.6889 2.81269L29.294 5.81571C28.6211 6.65938 27.5131 7.00705 26.4721 6.70214C23.8198 5.92466 21.0577 6.85497 19.4362 9.07452C17.8148 11.2935 17.7864 14.181 19.3638 16.4309C23.1461 21.8256 24.7898 24.2123 25.4996 25.2645C24.7915 26.2882 24.3762 27.5255 24.3762 28.8573C24.3762 29.6004 24.5065 30.3138 24.7437 30.9776L7.76493 48.703C2.75768 53.9308 0 60.7772 0 67.981C0 83.4308 12.6985 96 28.3071 96H46.798C62.4064 96 75.1051 83.4308 75.1051 67.981C75.1051 67.5924 75.0947 67.202 75.0782 66.8118C87.5139 64.6719 97 53.9128 97 41.0008ZM43.7631 26.2319C45.2257 26.2319 46.4154 27.4096 46.4154 28.8573C46.4154 30.305 45.2257 31.4826 43.7631 31.4826H30.8178C29.3552 31.4826 28.1654 30.305 28.1654 28.8573C28.1654 27.4096 29.3552 26.2319 30.8178 26.2319H43.7631ZM22.5067 11.2723C22.7637 10.9203 23.7317 9.80962 25.3958 10.2981C27.9316 11.0422 30.6295 10.1946 32.268 8.13971L34.6629 5.13668C35.3654 4.25588 36.4186 3.7505 37.5525 3.7505C38.6863 3.7505 39.7395 4.25569 40.442 5.13668L42.8369 8.13971C44.4756 10.1946 47.1731 11.0418 49.7093 10.2981C51.3734 9.81036 52.3414 10.9203 52.5981 11.2721C52.8552 11.6241 53.6171 12.8816 52.6278 14.2926C48.999 19.4686 47.3157 21.9067 46.514 23.0937C45.7885 22.753 44.9891 22.5429 44.1464 22.4938L46.5109 15.886L40.3099 22.4816H39.0567L37.4799 14.5097L35.9031 22.4816H34.6498L28.4488 15.886L30.8091 22.4818C29.9851 22.4829 29.1978 22.6393 28.4733 22.9206C27.6287 21.6747 25.9369 19.2284 22.4765 14.2928C21.4876 12.8818 22.2496 11.6241 22.5067 11.2723ZM71.3158 67.981C71.3158 81.3626 60.3171 92.2495 46.7978 92.2495H28.3069C14.7878 92.2495 3.78906 81.3626 3.78906 67.981C3.78906 61.7414 6.17769 55.8113 10.5148 51.2834L27.0482 34.0228C27.5529 34.3848 28.1124 34.6756 28.712 34.8815L23.8893 48.3584L34.5538 35.2333H35.2305L37.5526 46.9731L39.8748 35.2333H40.0269L44.0757 40.2164C44.0679 40.4771 44.0628 40.7385 44.0628 41.001C44.0628 55.4472 55.9366 67.2001 70.5313 67.2001C70.7888 67.2001 71.0451 67.1956 71.3009 67.1883C71.3098 67.4527 71.3158 67.7173 71.3158 67.981ZM70.5315 63.4494C58.0259 63.4494 47.8521 53.379 47.8521 41.0008C47.8521 28.6227 58.0261 18.5522 70.5315 18.5522C83.0369 18.5522 93.2109 28.6227 93.2109 41.0008C93.2109 53.379 83.0369 63.4494 70.5315 63.4494Z" fill="#3C4852"/>
<path d="M78.7145 33.4804H78.5157V31.343C78.5157 26.7427 74.9198 23 70.5001 23C66.0802 23 62.4843 26.7427 62.4843 31.343V33.4804H62.2857C60.4711 33.4804 59 35.0116 59 36.9003V50.5801C59 52.4688 60.4711 54 62.2857 54H78.7143C80.5289 54 82 52.4688 82 50.5801V36.9003C82.0002 35.0116 80.5291 33.4804 78.7145 33.4804ZM72.564 44.4872V48.3215H68.4833V44.4872C67.9133 43.9243 67.5559 43.1304 67.5559 42.2479C67.5559 40.542 68.8847 39.1589 70.5237 39.1589C72.1628 39.1589 73.4914 40.542 73.4914 42.2479C73.4914 43.1304 73.134 43.9243 72.564 44.4872ZM66.1941 33.4804V31.343C66.1941 28.8718 68.1257 26.8612 70.5001 26.8612C72.8743 26.8612 74.806 28.8718 74.806 31.343V33.4804H66.1941Z" fill="#FFCC80"/>
</svg>
